<?xml version="1.0" encoding="utf-8"?>
<svg width="500" zoomAndPan="magnify" viewBox="0 0 375 374.999991" height="500" preserveAspectRatio="xMidYMid meet" version="1.0" xmlns="http://www.w3.org/2000/svg">
  <defs>
    <clipPath id="id1">
      <path d="M 48.464844 62.3125 L 337.488281 62.3125 L 337.488281 322.703125 L 48.464844 322.703125 Z M 48.464844 62.3125 " clip-rule="nonzero"/>
    </clipPath>
    <clipPath id="id2">
      <path d="M 41.15625 55.011719 L 281.8125 55.011719 L 281.8125 322.703125 L 41.15625 322.703125 Z M 41.15625 55.011719 " clip-rule="nonzero"/>
    </clipPath>
    <clipPath id="id3">
      <path d="M 37.5 51.96875 L 333.601562 51.96875 L 333.601562 322.703125 L 37.5 322.703125 Z M 37.5 51.96875 " clip-rule="nonzero"/>
    </clipPath>
  </defs>
  <g clip-path="url(#id1)" transform="matrix(1, 0, 0, 1, 0.007019, -33.558712)">
    <path fill="#8e1c28" d="M 306.797 322.238 L 48.918 322.238 C 48.918 322.238 59.563 272.402 81.09 249.359 C 102.613 226.313 123.785 244.109 138.453 209.414 C 146.352 190.73 144.512 169.68 198.742 168.82 C 205.91 168.711 212.281 167.867 218.016 166.473 L 214.73 151.559 C 214.473 150.273 215.926 149.367 216.992 150.133 C 219.91 152.246 225.082 154.586 233.469 154.238 C 241.672 153.898 245.953 150.914 248.113 148.422 C 248.938 147.473 250.492 147.945 250.633 149.195 L 250.672 149.492 C 271.574 132.461 284.691 111.859 321.234 122.191 C 364.879 134.527 306.797 322.238 306.797 322.238" fill-opacity="1" fill-rule="nonzero"/>
  </g>
  <g clip-path="url(#id2)" transform="matrix(1, 0, 0, 1, 0.007019, -33.558712)">
    <path fill="#4f4c4d" d="M 68.809 165.543 L 72.563 165.543 C 73.09 165.543 73.516 165.117 73.516 164.594 L 73.516 159.188 C 73.516 158.66 73.09 158.234 72.563 158.234 L 68.809 158.234 C 68.281 158.234 67.855 158.66 67.855 159.188 L 67.855 164.594 C 67.855 165.117 68.281 165.543 68.809 165.543 Z M 106.688 135.438 L 111.563 135.438 C 112.086 135.438 112.512 135.012 112.512 134.484 L 112.512 127.633 C 112.512 127.109 112.086 126.68 111.563 126.68 L 106.688 126.68 C 106.16 126.68 105.734 127.109 105.734 127.633 L 105.734 134.484 C 105.734 135.012 106.16 135.438 106.688 135.438 Z M 191.461 179.461 C 191.461 178.871 190.984 178.398 190.395 178.398 C 189.805 178.398 189.328 178.871 189.328 179.461 C 189.328 180.047 189.805 180.523 190.395 180.523 C 190.984 180.523 191.461 180.047 191.461 179.461 Z M 190.195 187.469 C 190.195 187.113 189.906 186.828 189.555 186.828 L 157.031 186.828 C 156.676 186.828 156.391 187.113 156.391 187.469 C 156.391 187.82 156.676 188.109 157.031 188.109 L 189.555 188.109 C 189.906 188.109 190.195 187.82 190.195 187.469 Z M 188.223 204.551 L 158.785 204.551 L 158.785 206.734 L 188.223 206.734 L 188.223 204.551 Z M 188.223 207.992 L 158.785 207.992 L 158.785 210.176 L 188.223 210.176 L 188.223 207.992 Z M 188.223 211.438 L 158.785 211.438 L 158.785 213.621 L 188.223 213.621 L 188.223 211.438 Z M 188.223 214.883 L 158.785 214.883 L 158.785 217.066 L 188.223 217.066 L 188.223 214.883 Z M 188.223 218.328 L 158.785 218.328 L 158.785 220.512 L 188.223 220.512 L 188.223 218.328 Z M 182.992 172.402 C 182.992 173.395 183.797 174.195 184.785 174.195 C 185.777 174.195 186.582 173.395 186.582 172.402 C 186.582 171.414 185.777 170.613 184.785 170.613 C 183.797 170.613 182.992 171.414 182.992 172.402 Z M 190.168 174.832 C 189.582 174.832 189.105 175.305 189.105 175.895 C 189.105 176.484 189.582 176.957 190.168 176.957 C 190.762 176.957 191.234 176.484 191.234 175.895 C 191.234 175.305 190.762 174.832 190.168 174.832 Z M 189.051 171.898 C 189.051 172.488 189.527 172.961 190.113 172.961 C 190.703 172.961 191.18 172.488 191.18 171.898 C 191.18 171.313 190.703 170.836 190.113 170.836 C 189.527 170.836 189.051 171.313 189.051 171.898 Z M 214.469 226.699 C 215.008 230.047 215.629 233.852 216.266 237.672 L 98.637 237.672 C 108.711 233.98 118.313 233.824 126.742 226.699 L 149.953 226.699 L 149.953 184.051 L 149.961 183.855 C 152.289 181.063 155.273 178.52 159.262 176.352 C 160.434 178.723 162.871 180.355 165.695 180.355 C 169.656 180.355 172.871 177.145 172.871 173.188 C 172.871 172.613 172.797 172.059 172.672 171.523 C 178.938 170.086 186.609 169.156 196.086 168.883 L 197.051 183.383 L 197.051 226.699 L 214.469 226.699 Z M 170.617 174.168 C 170.68 173.848 170.715 173.523 170.715 173.188 C 170.715 172.789 170.66 172.402 170.574 172.035 C 170.215 172.125 169.863 172.223 169.516 172.32 C 169.578 172.602 169.613 172.891 169.613 173.188 C 169.613 173.527 169.566 173.855 169.484 174.168 L 170.617 174.168 Z M 259.164 322.238 L 270.148 322.238 L 270.148 322.031 L 259.164 322.094 L 259.164 322.238 Z M 206.09 297.609 L 151.73 297.609 L 148.422 296.902 C 147.961 296.801 147.844 296.191 148.242 295.93 L 153.344 292.578 L 149.141 294.215 C 148.695 294.387 148.266 293.938 148.453 293.496 L 155.207 277.984 C 155.453 277.422 154.715 276.953 154.313 277.414 L 142.086 291.371 C 141.73 291.777 141.059 291.457 141.152 290.922 L 142.996 280.742 C 143.105 280.137 142.273 279.852 141.988 280.398 L 137.934 288.145 C 137.77 288.457 137.352 288.531 137.094 288.289 L 129.113 280.902 C 128.672 280.492 127.996 281.008 128.273 281.543 L 133.082 290.715 C 133.316 291.164 132.855 291.656 132.391 291.453 L 118.309 285.27 C 117.738 285.02 117.27 285.777 117.75 286.176 L 126.27 293.266 C 126.605 293.547 126.48 294.094 126.051 294.199 L 112.184 297.609 L 52.902 297.609 L 41.367 322.707 L 214.398 322.707 L 214.398 305.906 C 214.398 301.324 210.676 297.609 206.09 297.609 Z M 269.559 133.027 L 270.148 133.027 L 270.148 239.496 C 264.648 229.285 260.883 217.297 259.367 212.012 C 259.313 211.832 259.246 211.66 259.164 211.496 L 259.164 193.613 C 261.855 187.746 265.617 184.867 265.617 184.867 L 259.852 184.184 L 259.164 184.887 L 259.164 142.148 C 262.676 138.992 266.078 135.887 269.559 133.027" fill-opacity="1" fill-rule="nonzero"/>
  </g>
  <path fill="#f6836b" d="M 258.898 122.543 C 254.948 120.16 253.323 128.125 253.175 128.894 C 253.175 128.91 253.175 128.914 253.171 128.922 C 253.167 128.937 253.167 128.941 253.167 128.949 C 253.167 128.949 253.163 128.961 253.163 128.961 C 253.163 128.965 253.163 128.965 253.163 128.965 C 253.101 129.234 253.058 129.484 253.027 129.726 L 252.437 128.793 L 253.261 134.828 L 256.663 135.512 C 256.663 135.504 256.663 135.496 256.663 135.488 L 255.437 133.547 C 255.609 133.5 255.777 133.43 255.948 133.355 L 255.948 133.351 C 259.288 131.812 262.476 124.695 258.898 122.543 Z M 219.862 116.965 L 219.862 118.258 C 219.612 118.141 219.362 118.019 219.132 117.894 C 219.366 118.019 219.609 118.148 219.862 118.269 C 219.956 118.312 220.058 118.359 220.152 118.402 C 220.261 118.453 220.37 118.504 220.484 118.555 C 220.593 118.605 220.714 118.652 220.831 118.703 C 220.937 118.75 221.042 118.793 221.152 118.836 C 221.273 118.883 221.398 118.933 221.523 118.98 C 221.628 119.019 221.734 119.058 221.839 119.098 C 221.851 119.101 221.859 119.109 221.866 119.109 C 221.995 119.156 222.12 119.199 222.245 119.242 C 222.359 119.281 222.472 119.32 222.581 119.355 C 222.632 119.371 222.683 119.387 222.734 119.406 C 222.823 119.433 222.913 119.465 223.011 119.492 C 223.14 119.531 223.273 119.57 223.409 119.609 C 223.452 119.621 223.495 119.633 223.534 119.644 C 223.667 119.683 223.804 119.719 223.941 119.758 C 224.046 119.785 224.155 119.812 224.261 119.84 C 224.335 119.855 224.405 119.871 224.48 119.891 C 224.655 119.933 224.831 119.973 225.011 120.012 C 225.116 120.035 225.222 120.062 225.327 120.082 C 225.421 120.101 225.515 120.121 225.609 120.141 C 225.874 120.187 226.144 120.242 226.417 120.285 C 226.425 120.289 226.437 120.289 226.441 120.293 C 226.546 120.308 226.655 120.324 226.761 120.34 C 227.027 120.379 227.292 120.418 227.57 120.453 C 227.659 120.461 227.749 120.473 227.839 120.484 C 227.921 120.496 228.007 120.504 228.093 120.512 C 228.355 120.539 228.62 120.566 228.894 120.59 C 229.05 120.601 229.206 120.613 229.366 120.625 C 229.636 120.644 229.913 120.66 230.191 120.672 C 230.343 120.68 230.495 120.687 230.652 120.691 C 230.675 120.691 230.698 120.691 230.722 120.691 C 231.011 120.703 231.312 120.707 231.612 120.707 C 231.698 120.707 231.784 120.711 231.874 120.711 C 231.948 120.711 232.027 120.711 232.101 120.711 C 232.55 120.707 233.007 120.699 233.476 120.68 C 233.487 120.68 233.499 120.676 233.511 120.676 C 234.003 120.656 234.48 120.625 234.945 120.586 C 235.101 120.574 235.241 120.555 235.394 120.539 C 235.644 120.516 235.89 120.488 236.132 120.461 C 236.195 120.453 236.265 120.445 236.327 120.437 C 236.503 120.418 236.663 120.387 236.831 120.363 C 237.101 120.32 237.366 120.285 237.624 120.238 C 237.804 120.207 237.972 120.172 238.144 120.137 C 238.28 120.109 238.417 120.078 238.558 120.051 C 238.652 120.031 238.749 120.016 238.843 119.992 C 239.015 119.953 239.179 119.91 239.347 119.867 C 239.558 119.816 239.773 119.762 239.976 119.707 C 240.148 119.66 240.304 119.609 240.468 119.558 C 240.655 119.5 240.851 119.441 241.034 119.383 C 241.202 119.324 241.362 119.266 241.527 119.203 C 241.695 119.144 241.859 119.086 242.015 119.023 C 242.179 118.957 242.339 118.891 242.495 118.824 C 242.554 118.801 242.609 118.777 242.663 118.754 C 242.753 118.715 242.839 118.676 242.925 118.641 C 243.085 118.566 243.241 118.488 243.394 118.414 C 243.452 118.387 243.507 118.359 243.562 118.332 C 243.628 118.297 243.698 118.266 243.765 118.23 C 243.921 118.148 244.077 118.062 244.23 117.976 C 244.277 117.949 244.323 117.922 244.374 117.894 C 244.429 117.863 244.484 117.832 244.538 117.801 C 244.691 117.711 244.843 117.613 244.991 117.523 C 245.073 117.469 245.159 117.418 245.237 117.363 C 245.39 117.262 245.542 117.16 245.687 117.055 C 245.734 117.019 245.784 116.984 245.835 116.953 C 245.847 116.941 245.866 116.93 245.878 116.914 C 246.034 116.801 246.183 116.691 246.323 116.574 C 246.37 116.539 246.421 116.5 246.464 116.461 C 246.612 116.34 246.761 116.215 246.902 116.09 C 246.929 116.066 246.96 116.035 246.987 116.012 C 247.14 115.875 247.284 115.738 247.421 115.605 C 247.433 115.59 247.448 115.574 247.46 115.562 C 247.573 115.453 247.679 115.344 247.784 115.234 C 247.82 115.199 247.851 115.16 247.882 115.125 L 247.468 113.676 C 236.96 120.461 219.862 116.965 219.862 116.965 Z M 218.636 117.625 C 218.714 117.668 218.796 117.711 218.874 117.754 C 218.792 117.711 218.714 117.664 218.636 117.621 C 218.636 117.625 218.636 117.625 218.636 117.625 Z M 254.007 140.285 L 256.741 141.523 C 256.667 142.598 256.53 143.551 256.316 144.351 C 256.081 145.234 255.581 146.023 254.886 146.734 L 254.007 140.285" fill-opacity="1" fill-rule="nonzero"/>
  <path fill="#e6c897" d="M 110.882 222.343 C 111.003 222.523 111.206 222.621 111.409 222.621 C 111.534 222.621 111.659 222.586 111.769 222.507 C 112.062 222.312 112.14 221.914 111.941 221.621 L 110.394 219.355 C 110.195 219.062 109.796 218.988 109.503 219.187 C 109.21 219.386 109.136 219.785 109.335 220.074 L 110.882 222.343 Z M 94.206 253.265 L 100.972 253.308 C 101.323 253.308 101.612 253.023 101.616 252.671 C 101.616 252.32 101.331 252.027 100.976 252.027 L 94.214 251.984 L 94.21 251.984 C 93.859 251.984 93.57 252.269 93.57 252.621 C 93.57 252.976 93.851 253.265 94.206 253.265 Z M 113.034 236.406 C 113.159 236.519 113.316 236.574 113.468 236.574 C 113.644 236.574 113.816 236.504 113.941 236.371 C 114.183 236.109 114.163 235.707 113.905 235.464 L 106.902 228.992 C 106.644 228.754 106.237 228.769 105.999 229.027 C 105.757 229.289 105.773 229.691 106.03 229.933 L 113.034 236.406 Z M 116.07 211.496 C 115.749 211.652 115.624 212.039 115.78 212.355 L 117.429 215.648 C 117.542 215.871 117.769 216 118.003 216 C 118.097 216 118.195 215.98 118.288 215.933 C 118.605 215.773 118.734 215.39 118.573 215.074 L 116.929 211.781 C 116.769 211.468 116.386 211.339 116.07 211.496 Z M 127.89 230.175 C 127.972 230.457 128.226 230.644 128.507 230.644 C 128.566 230.644 128.624 230.636 128.679 230.617 C 129.019 230.523 129.218 230.171 129.124 229.832 L 126.722 221.222 C 126.624 220.882 126.273 220.683 125.933 220.777 C 125.589 220.875 125.394 221.226 125.487 221.566 L 127.89 230.175 Z M 84.749 248.019 L 96.081 249.597 C 96.109 249.601 96.14 249.605 96.167 249.605 C 96.48 249.605 96.757 249.371 96.804 249.05 C 96.851 248.699 96.605 248.379 96.257 248.328 L 84.929 246.754 C 84.577 246.695 84.249 246.949 84.202 247.296 C 84.155 247.648 84.398 247.972 84.749 248.019 Z M 79.976 252.714 L 74.249 252.597 C 73.878 252.617 73.605 252.871 73.597 253.226 C 73.589 253.578 73.87 253.871 74.226 253.879 L 79.952 253.992 C 79.956 253.992 79.956 253.992 79.964 253.992 C 80.312 253.992 80.597 253.714 80.605 253.363 C 80.609 253.011 80.327 252.718 79.976 252.714 Z M 70.624 147.929 C 70.273 147.929 69.984 148.214 69.984 148.57 L 69.984 261.031 C 69.984 261.386 70.273 261.675 70.624 261.675 C 70.98 261.675 71.265 261.386 71.265 261.031 L 71.265 148.57 C 71.265 148.214 70.98 147.929 70.624 147.929 Z M 133.976 233.589 C 133.972 233.941 134.249 234.234 134.605 234.242 C 134.609 234.242 134.616 234.242 134.616 234.242 C 134.968 234.242 135.253 233.964 135.257 233.613 L 135.398 226.621 C 135.402 226.265 135.12 225.976 134.769 225.968 C 134.761 225.968 134.761 225.968 134.757 225.968 C 134.409 225.968 134.124 226.246 134.116 226.593 L 133.976 233.589 Z M 285.058 156.925 C 284.823 156.66 284.421 156.629 284.155 156.863 C 283.89 157.097 283.859 157.504 284.093 157.769 C 289.124 163.507 287.226 174.906 286.089 181.714 C 285.972 182.433 285.859 183.105 285.761 183.718 C 285.144 187.679 283.952 199.679 283.941 199.8 C 283.902 200.152 284.159 200.464 284.511 200.5 C 284.534 200.5 284.554 200.504 284.577 200.504 C 284.902 200.504 285.183 200.257 285.214 199.925 C 285.226 199.808 286.417 187.839 287.03 183.914 C 287.124 183.304 287.234 182.64 287.355 181.925 C 288.527 174.89 290.487 163.125 285.058 156.925 Z M 260.046 197.582 C 259.698 197.629 259.448 197.953 259.495 198.3 C 259.546 198.652 259.862 198.894 260.218 198.851 C 264.921 198.218 268.71 201.796 268.753 201.836 C 268.878 201.953 269.034 202.011 269.195 202.011 C 269.362 202.011 269.53 201.945 269.655 201.816 C 269.902 201.562 269.894 201.156 269.64 200.914 C 269.468 200.746 265.37 196.867 260.046 197.582 Z M 185.757 205.765 C 185.534 206.039 185.573 206.445 185.847 206.668 C 186.21 206.968 189.116 209.281 191.663 209.281 C 192.042 209.281 192.417 209.23 192.773 209.109 C 193.105 209 193.288 208.636 193.175 208.3 C 193.066 207.968 192.702 207.785 192.366 207.898 C 190.612 208.476 187.655 206.492 186.659 205.679 C 186.386 205.453 185.98 205.492 185.757 205.765 Z M 160.843 210.296 L 159.339 213.656 C 159.195 213.976 159.339 214.359 159.663 214.5 C 159.745 214.539 159.835 214.558 159.925 214.558 C 160.167 214.558 160.402 214.414 160.507 214.179 L 162.011 210.82 C 162.159 210.496 162.011 210.117 161.691 209.972 C 161.362 209.832 160.987 209.976 160.843 210.296 Z M 89.019 237.113 C 88.698 236.964 88.32 237.105 88.167 237.425 C 88.023 237.746 88.163 238.125 88.484 238.277 L 91.882 239.843 C 91.968 239.882 92.058 239.898 92.152 239.898 C 92.394 239.898 92.624 239.761 92.734 239.527 C 92.882 239.207 92.741 238.828 92.417 238.679 L 89.019 237.113 Z M 269.175 153.531 C 269.487 153.375 269.62 152.992 269.46 152.675 C 269.308 152.359 268.925 152.226 268.605 152.382 C 268.343 152.511 262.187 155.671 261.347 168.035 C 260.577 179.386 261.226 182.871 261.257 183.015 C 261.316 183.316 261.581 183.531 261.882 183.531 C 261.921 183.531 261.964 183.527 262.007 183.519 C 262.355 183.453 262.577 183.117 262.511 182.769 C 262.507 182.734 261.87 179.238 262.628 168.121 C 263.413 156.558 269.112 153.558 269.175 153.531 Z M 133.374 218.746 C 133.378 218.746 133.378 218.746 133.382 218.746 C 133.734 218.746 134.019 218.464 134.023 218.113 L 134.159 208.238 C 134.167 207.886 133.882 207.593 133.527 207.589 C 133.527 207.589 133.523 207.589 133.519 207.589 C 133.171 207.589 132.886 207.871 132.878 208.222 L 132.741 218.093 C 132.737 218.449 133.019 218.738 133.374 218.746 Z M 140.14 225.691 C 140.218 225.722 140.304 225.738 140.386 225.738 C 140.636 225.738 140.874 225.593 140.976 225.343 L 143.448 219.449 C 143.585 219.121 143.429 218.75 143.105 218.609 C 142.777 218.472 142.402 218.629 142.265 218.957 L 139.792 224.851 C 139.659 225.179 139.812 225.55 140.14 225.691 Z M 182.3 263.871 L 156.734 258.402 C 155.753 258.191 155.511 256.91 156.347 256.359 L 170.331 247.175 C 171.46 246.433 170.566 244.695 169.304 245.183 L 155.241 250.656 C 154.308 251.019 153.398 250.078 153.796 249.16 L 155.027 246.339 L 157.749 243.886 L 174.034 237.382 C 174.085 237.277 173.792 236.703 173.273 235.836 C 173.343 235.695 173.366 235.531 173.316 235.367 C 173.234 235.093 172.984 234.925 172.714 234.921 C 171.554 233.074 169.792 230.449 168.054 227.953 L 175.679 221.886 C 175.956 221.664 176.003 221.261 175.784 220.984 C 175.562 220.711 175.159 220.664 174.882 220.882 L 167.32 226.898 C 164.8 223.304 162.534 220.257 162.538 220.636 C 162.542 220.867 161.878 222.039 160.905 223.636 C 160.862 223.578 160.816 223.519 160.753 223.476 C 160.464 223.273 160.062 223.343 159.859 223.632 L 154.718 230.945 C 154.515 231.234 154.585 231.632 154.874 231.836 C 154.987 231.914 155.116 231.953 155.241 231.953 C 155.445 231.953 155.64 231.859 155.769 231.683 L 155.89 231.507 C 155.339 232.355 154.827 233.132 154.398 233.781 L 154.351 233.839 C 152.585 234.546 149.417 235.39 146.312 236.328 L 147.96 227.218 C 148.191 225.949 146.452 225.355 145.851 226.496 L 139.323 238.961 C 138.773 239.273 138.331 239.589 138.038 239.914 C 137.437 240.582 137.257 241.609 137.323 242.785 L 136.163 244.996 C 135.823 245.652 134.945 245.804 134.402 245.3 L 118.917 230.961 C 117.987 230.097 116.562 231.183 117.152 232.308 L 123.995 245.347 C 124.487 246.293 123.515 247.332 122.538 246.902 L 101.421 237.632 C 100.226 237.109 99.241 238.695 100.245 239.527 L 117.222 253.656 C 117.933 254.25 117.667 255.394 116.769 255.617 L 83.148 263.879 C 81.851 264.199 82.081 266.101 83.417 266.101 L 105.679 266.101 C 105.667 265.863 105.788 265.625 106.081 265.554 L 126.058 260.64 C 126.487 260.535 126.612 259.988 126.277 259.707 L 117.757 252.617 C 117.277 252.218 117.745 251.461 118.316 251.711 L 132.398 257.894 C 132.862 258.097 133.323 257.605 133.089 257.156 L 128.28 247.984 C 128.003 247.449 128.679 246.933 129.12 247.343 L 137.101 254.73 C 137.359 254.972 137.777 254.898 137.941 254.586 L 141.995 246.839 C 142.28 246.293 143.112 246.578 143.003 247.183 L 141.159 257.363 C 141.066 257.898 141.737 258.218 142.093 257.812 L 146.812 252.429 L 154.32 243.855 C 154.722 243.394 155.46 243.863 155.214 244.425 L 148.46 259.937 C 148.273 260.379 148.702 260.828 149.148 260.656 L 153.351 259.019 L 148.249 262.371 C 147.851 262.632 147.968 263.242 148.429 263.343 L 158.737 265.546 C 159.042 265.613 159.171 265.859 159.155 266.101 L 182.066 266.101 C 183.417 266.101 183.624 264.156 182.3 263.871 Z M 216.835 218.05 L 198.495 234.773 L 181.507 241.668 L 177.632 251.992 C 177.632 251.992 186.245 263.816 191.413 262.312 C 195.784 261.035 204.945 249.175 209.234 245.277 C 215.831 244.414 230.269 242.589 231.116 243.015 C 232.214 243.562 217.835 218.05 216.835 218.05 Z M 219.956 127.226 L 221.191 134.14 C 221.191 134.14 223.663 136.144 230.671 137.093 C 237.679 138.043 245.359 133.226 245.359 133.226 L 244.28 126.355 C 233.023 133.488 219.956 127.226 219.956 127.226 Z M 115.503 103.011 C 118.671 103.011 121.245 100.437 121.245 97.273 C 121.245 94.113 118.671 91.539 115.503 91.539 C 112.335 91.539 109.761 94.113 109.761 97.273 C 109.761 100.437 112.335 103.011 115.503 103.011 Z M 98.331 90.777 L 89.374 90.777 L 89.374 111.718 L 98.331 111.718 L 98.331 90.777 Z M 54.195 140.203 L 61.671 140.203 L 61.671 122.714 L 54.195 122.714 L 54.195 140.203 Z M 190.402 145.136 C 189.98 145.136 189.636 145.48 189.636 145.902 C 189.636 146.324 189.98 146.664 190.402 146.664 C 190.823 146.664 191.167 146.324 191.167 145.902 C 191.167 145.48 190.823 145.136 190.402 145.136 Z M 190.175 141.57 C 189.757 141.57 189.413 141.914 189.413 142.336 C 189.413 142.757 189.757 143.101 190.175 143.101 C 190.601 143.101 190.945 142.757 190.945 142.336 C 190.945 141.914 190.601 141.57 190.175 141.57 Z M 190.12 139.105 C 190.542 139.105 190.886 138.761 190.886 138.339 C 190.886 137.918 190.542 137.578 190.12 137.578 C 189.698 137.578 189.355 137.918 189.355 138.339 C 189.355 138.761 189.698 139.105 190.12 139.105 Z M 184.792 137.558 C 184.081 137.558 183.507 138.132 183.507 138.843 C 183.507 139.554 184.081 140.132 184.792 140.132 C 185.507 140.132 186.085 139.554 186.085 138.843 C 186.085 138.132 185.507 137.558 184.792 137.558 Z M 171.308 139.629 C 171.308 139.179 171.249 138.75 171.152 138.332 C 170.96 138.379 170.765 138.425 170.581 138.476 C 170.667 138.843 170.722 139.23 170.722 139.629 C 170.722 139.964 170.687 140.289 170.624 140.609 L 169.491 140.609 C 169.573 140.296 169.62 139.968 169.62 139.629 C 169.62 139.332 169.585 139.043 169.523 138.761 C 168.409 139.074 167.343 139.398 166.327 139.746 C 166.28 140.058 166.027 140.3 165.702 140.3 C 165.53 140.3 165.378 140.23 165.261 140.125 C 163.601 140.726 162.073 141.379 160.663 142.074 C 161.573 143.937 163.487 145.226 165.702 145.226 C 168.792 145.226 171.308 142.714 171.308 139.629 Z" fill-opacity="1" fill-rule="nonzero"/>
  <g clip-path="url(#id3)" transform="matrix(1, 0, 0, 1, 0.007019, -33.558712)">
    <path fill="#000000" d="M 88.25 135.168 L 100.625 135.168 C 101.152 135.168 101.578 134.738 101.578 134.215 L 101.578 133.359 L 105.734 133.359 L 105.734 128.125 L 101.578 128.125 L 101.578 127.363 C 101.578 126.836 101.152 126.41 100.625 126.41 L 88.25 126.41 C 87.727 126.41 87.301 126.836 87.301 127.363 L 87.301 128.125 L 85.129 128.125 L 85.129 133.359 L 87.301 133.359 L 87.301 134.215 C 87.301 134.738 87.727 135.168 88.25 135.168 Z M 250.668 158.078 C 250.273 158.078 249.949 158.723 249.949 159.516 C 249.949 160.313 250.273 160.957 250.668 160.957 C 251.066 160.957 251.391 160.313 251.391 159.516 C 251.391 158.723 251.066 158.078 250.668 158.078 Z M 257.066 166.184 C 256.863 166.352 256.656 166.496 256.449 166.629 C 256.109 166.844 255.77 167.012 255.43 167.105 L 256.656 169.047 L 256.805 169.285 C 256.805 169.285 256.906 168.086 257.066 166.184 Z M 257.723 155.684 C 257.797 155.691 257.867 155.699 257.941 155.715 C 257.949 155.617 257.953 155.52 257.965 155.426 L 257.723 155.684 Z M 214.848 152.086 L 214.73 151.559 C 214.473 150.273 215.926 149.367 216.992 150.133 C 217.473 150.48 218.023 150.832 218.629 151.18 C 218.707 151.223 218.785 151.27 218.867 151.313 C 218.949 151.359 219.035 151.406 219.125 151.453 C 219.359 151.578 219.602 151.707 219.855 151.828 L 219.855 150.523 C 219.855 150.523 236.953 154.02 247.461 147.234 L 247.875 148.684 C 247.953 148.598 248.039 148.508 248.113 148.422 C 248.938 147.473 250.492 147.945 250.633 149.195 L 251.566 156.012 L 254.359 152.91 L 258.547 148.262 C 258.633 147.152 258.715 146.102 258.789 145.176 C 259.406 137.152 255.781 126.656 239.262 126.863 C 222.738 127.07 212.254 131.145 212.254 131.145 L 215.531 136.945 C 215.531 136.945 211.98 143.102 214.848 152.086 Z M 288.676 202.914 C 288.676 202.797 288.676 202.68 288.672 202.566 C 288.672 202.395 288.668 202.227 288.664 202.055 C 288.66 201.949 288.66 201.844 288.652 201.734 C 288.648 201.551 288.641 201.375 288.629 201.191 C 288.625 201.098 288.621 201.004 288.617 200.91 C 288.602 200.695 288.586 200.484 288.57 200.273 C 288.566 200.211 288.563 200.148 288.555 200.09 C 288.531 199.813 288.508 199.539 288.473 199.266 C 288.473 199.246 288.469 199.227 288.465 199.211 C 288.438 198.961 288.402 198.711 288.367 198.465 C 288.355 198.383 288.34 198.305 288.328 198.227 C 288.301 198.043 288.27 197.855 288.238 197.672 C 288.219 197.578 288.199 197.484 288.18 197.387 C 288.148 197.223 288.117 197.059 288.078 196.895 C 288.055 196.793 288.031 196.691 288.008 196.59 C 287.969 196.434 287.934 196.281 287.895 196.133 C 287.867 196.027 287.836 195.926 287.809 195.82 C 287.77 195.672 287.727 195.527 287.68 195.383 C 287.648 195.277 287.613 195.172 287.582 195.07 C 287.535 194.93 287.484 194.789 287.438 194.652 C 287.398 194.547 287.359 194.445 287.32 194.344 C 287.27 194.207 287.215 194.074 287.16 193.938 C 287.117 193.836 287.074 193.738 287.031 193.637 C 286.973 193.504 286.91 193.375 286.848 193.242 C 286.801 193.148 286.754 193.051 286.707 192.957 C 286.641 192.824 286.57 192.695 286.5 192.57 C 286.449 192.477 286.402 192.387 286.348 192.297 C 286.27 192.168 286.191 192.039 286.113 191.91 C 286.059 191.832 286.008 191.746 285.953 191.664 C 285.863 191.527 285.766 191.391 285.668 191.258 C 285.617 191.191 285.57 191.125 285.523 191.059 C 285.371 190.863 285.215 190.672 285.051 190.484 C 284.816 190.219 284.414 190.188 284.148 190.422 C 283.883 190.656 283.852 191.063 284.086 191.328 C 284.297 191.566 284.488 191.816 284.676 192.074 C 284.723 192.141 284.766 192.207 284.816 192.27 C 284.992 192.527 285.16 192.793 285.313 193.063 C 285.316 193.07 285.32 193.074 285.324 193.078 C 285.48 193.355 285.625 193.648 285.762 193.941 C 285.797 194.016 285.832 194.09 285.863 194.164 C 285.992 194.453 286.113 194.746 286.223 195.047 C 286.227 195.055 286.23 195.066 286.234 195.078 C 286.344 195.391 286.445 195.711 286.539 196.035 C 286.563 196.113 286.586 196.195 286.609 196.277 C 286.695 196.586 286.773 196.902 286.844 197.227 C 286.848 197.242 286.852 197.254 286.855 197.273 C 286.93 197.609 286.988 197.953 287.047 198.297 C 287.063 198.383 287.074 198.469 287.086 198.555 C 287.137 198.887 287.184 199.219 287.219 199.555 C 287.223 199.574 287.223 199.59 287.227 199.609 C 287.262 199.969 287.293 200.328 287.316 200.691 C 287.324 200.777 287.332 200.863 287.336 200.949 C 287.355 201.297 287.375 201.645 287.383 201.992 C 287.383 202.008 287.387 202.027 287.387 202.043 C 287.395 202.414 287.398 202.785 287.395 203.156 C 287.395 203.242 287.395 203.324 287.395 203.41 C 287.391 203.762 287.383 204.121 287.371 204.473 C 287.371 204.492 287.367 204.504 287.367 204.52 C 287.355 204.898 287.336 205.273 287.313 205.648 C 287.309 205.727 287.305 205.805 287.301 205.883 C 287.277 206.246 287.25 206.605 287.219 206.961 C 287.219 206.973 287.215 206.98 287.215 206.992 C 287.184 207.367 287.148 207.738 287.109 208.113 C 287.102 208.184 287.094 208.254 287.086 208.324 C 287.051 208.684 287.008 209.043 286.965 209.395 C 286.707 211.539 286.371 213.551 286.082 215.273 C 285.965 215.992 285.852 216.664 285.754 217.277 C 285.137 221.238 283.945 233.238 283.934 233.359 C 283.895 233.711 284.152 234.023 284.504 234.059 C 284.527 234.059 284.547 234.063 284.57 234.063 C 284.895 234.063 285.176 233.816 285.207 233.484 C 285.219 233.367 286.41 221.398 287.023 217.473 C 287.117 216.863 287.227 216.199 287.348 215.484 C 287.434 214.953 287.527 214.398 287.621 213.82 C 287.621 213.809 287.625 213.797 287.629 213.785 C 287.66 213.59 287.691 213.391 287.723 213.191 C 287.73 213.145 287.738 213.098 287.746 213.051 C 287.773 212.867 287.801 212.68 287.828 212.496 C 287.84 212.434 287.848 212.367 287.859 212.305 C 287.883 212.129 287.914 211.953 287.941 211.77 C 287.949 211.703 287.957 211.633 287.969 211.559 C 287.996 211.383 288.02 211.207 288.047 211.023 C 288.055 210.961 288.063 210.895 288.074 210.828 C 288.129 210.402 288.188 209.973 288.238 209.531 C 288.242 209.527 288.242 209.523 288.242 209.52 C 288.258 209.383 288.273 209.246 288.289 209.113 C 288.305 208.98 288.32 208.852 288.336 208.719 C 288.348 208.594 288.359 208.465 288.375 208.336 C 288.391 208.195 288.402 208.051 288.418 207.91 C 288.43 207.785 288.441 207.66 288.453 207.539 C 288.465 207.387 288.48 207.238 288.492 207.09 C 288.504 206.965 288.512 206.84 288.523 206.715 C 288.535 206.566 288.547 206.414 288.555 206.266 C 288.566 206.141 288.574 206.016 288.582 205.887 C 288.59 205.738 288.602 205.586 288.609 205.434 C 288.617 205.313 288.621 205.188 288.629 205.063 C 288.633 204.906 288.641 204.75 288.645 204.594 C 288.652 204.473 288.652 204.352 288.66 204.23 C 288.664 204.07 288.664 203.914 288.668 203.754 C 288.672 203.637 288.672 203.516 288.676 203.398 C 288.676 203.234 288.676 203.074 288.676 202.914 Z M 269.633 234.473 C 269.539 234.375 268.176 233.09 266.051 232.125 C 266.039 232.121 266.031 232.117 266.02 232.113 C 265.797 232.012 265.566 231.914 265.328 231.824 C 265.293 231.809 265.258 231.797 265.223 231.785 C 265.004 231.703 264.785 231.625 264.559 231.555 C 264.488 231.531 264.422 231.52 264.355 231.496 C 264.148 231.441 263.949 231.383 263.734 231.332 C 263.637 231.309 263.535 231.293 263.43 231.273 C 263.246 231.234 263.063 231.195 262.871 231.168 C 262.738 231.148 262.602 231.137 262.465 231.125 C 262.297 231.105 262.133 231.082 261.961 231.07 C 261.785 231.063 261.605 231.066 261.426 231.066 C 261.289 231.066 261.156 231.055 261.02 231.059 C 260.695 231.07 260.371 231.098 260.039 231.141 C 259.691 231.188 259.441 231.512 259.488 231.859 C 259.539 232.211 259.855 232.453 260.211 232.41 C 260.477 232.375 260.73 232.359 260.988 232.348 C 261.055 232.344 261.121 232.34 261.188 232.34 C 261.418 232.336 261.645 232.34 261.867 232.352 C 261.891 232.355 261.918 232.355 261.945 232.359 C 262.188 232.375 262.43 232.402 262.668 232.438 C 262.727 232.449 262.785 232.457 262.848 232.469 C 263.047 232.504 263.246 232.539 263.441 232.586 C 263.48 232.594 263.516 232.602 263.551 232.613 C 263.777 232.668 263.996 232.73 264.211 232.797 C 264.262 232.813 264.313 232.832 264.367 232.852 C 264.539 232.906 264.711 232.969 264.879 233.031 C 264.922 233.051 264.965 233.066 265.008 233.082 C 265.203 233.16 265.395 233.246 265.578 233.328 C 265.625 233.348 265.672 233.371 265.719 233.395 C 265.859 233.465 266 233.535 266.137 233.602 C 266.184 233.629 266.23 233.652 266.281 233.68 C 266.438 233.766 266.594 233.852 266.742 233.938 C 266.785 233.969 266.828 233.992 266.875 234.02 C 266.98 234.082 267.086 234.148 267.184 234.211 C 267.23 234.246 267.281 234.277 267.328 234.309 C 268.211 234.891 268.73 235.379 268.746 235.395 C 268.871 235.512 269.027 235.57 269.188 235.57 C 269.355 235.57 269.523 235.504 269.648 235.375 C 269.895 235.121 269.887 234.715 269.633 234.473 Z M 261.25 216.574 C 261.309 216.875 261.574 217.09 261.875 217.09 C 261.914 217.09 261.957 217.086 262 217.078 C 262.348 217.012 262.57 216.676 262.504 216.328 C 262.5 216.293 261.863 212.797 262.621 201.68 C 263.406 190.117 269.105 187.117 269.168 187.09 C 269.48 186.934 269.613 186.551 269.453 186.234 C 269.301 185.918 268.918 185.785 268.598 185.941 C 268.336 186.07 262.18 189.23 261.34 201.594 C 260.57 212.945 261.219 216.43 261.25 216.574 Z M 317.492 147.063 L 317.492 146.008 L 313.566 146.008 L 313.566 146.809 C 313.566 147.309 313.16 147.715 312.656 147.715 L 310.492 147.715 L 310.492 151.125 L 313.07 151.125 C 314.027 151.125 314.801 151.898 314.801 152.848 L 314.801 159.41 C 323.133 161.25 329.371 168.664 329.371 177.539 L 329.371 232.121 C 320.277 278.664 306.797 322.238 306.797 322.238 L 283.152 322.238 L 283.152 321.961 L 296.176 321.887 L 290.199 291.645 L 291.711 244.117 L 289.512 236.852 C 289.457 237.906 289.348 239.371 289.184 241.012 C 289.176 232.711 288.824 223.172 287.68 214.27 L 287.68 214.273 C 288.82 223.176 289.176 232.711 289.184 241.012 C 289.105 241.789 289.016 242.605 288.91 243.438 C 288.906 243.48 288.902 243.523 288.895 243.566 C 288.871 243.738 288.852 243.914 288.828 244.086 C 288.816 244.156 288.809 244.223 288.797 244.293 C 288.777 244.461 288.754 244.629 288.73 244.797 C 288.719 244.867 288.711 244.941 288.699 245.012 C 288.652 245.363 288.598 245.711 288.543 246.055 C 288.539 246.09 288.531 246.129 288.527 246.164 C 288.508 246.301 288.48 246.438 288.461 246.574 C 288.441 246.688 288.422 246.801 288.402 246.918 C 288.383 247.043 288.359 247.168 288.34 247.293 C 288.316 247.418 288.293 247.543 288.273 247.672 C 288.25 247.789 288.23 247.902 288.207 248.02 C 288.18 248.168 288.152 248.313 288.121 248.461 C 288.105 248.551 288.086 248.648 288.066 248.738 C 288.023 248.965 287.977 249.184 287.926 249.406 C 287.91 249.492 287.891 249.574 287.871 249.66 C 287.836 249.809 287.805 249.953 287.77 250.098 C 287.75 250.191 287.727 250.277 287.707 250.367 C 287.672 250.508 287.637 250.648 287.602 250.785 C 287.582 250.863 287.563 250.945 287.539 251.027 C 287.496 251.195 287.445 251.363 287.398 251.527 C 287.387 251.566 287.375 251.613 287.363 251.652 C 287.305 251.852 287.246 252.047 287.184 252.238 C 287.164 252.297 287.145 252.352 287.125 252.41 C 287.082 252.543 287.035 252.672 286.988 252.801 C 286.965 252.863 286.945 252.926 286.922 252.988 C 286.875 253.109 286.828 253.227 286.781 253.34 C 286.758 253.395 286.738 253.449 286.715 253.5 C 286.656 253.645 286.59 253.781 286.527 253.91 C 286.52 253.93 286.512 253.945 286.504 253.961 C 286.434 254.105 286.359 254.242 286.285 254.367 C 286.266 254.406 286.242 254.441 286.219 254.477 C 286.168 254.566 286.113 254.648 286.055 254.73 C 286.027 254.766 286.004 254.805 285.977 254.84 C 285.918 254.91 285.863 254.977 285.809 255.039 C 285.785 255.07 285.758 255.098 285.73 255.125 C 285.656 255.203 285.578 255.277 285.496 255.336 C 285.492 255.34 285.488 255.344 285.484 255.348 C 285.398 255.41 285.313 255.461 285.227 255.5 C 285.199 255.516 285.176 255.52 285.148 255.531 C 285.082 255.555 285.023 255.574 284.957 255.586 C 284.926 255.594 284.895 255.594 284.863 255.598 C 284.801 255.605 284.734 255.605 284.668 255.598 C 284.641 255.594 284.613 255.594 284.582 255.59 C 284.488 255.574 284.391 255.547 284.297 255.504 C 282.199 254.578 280.207 253.07 278.324 251.164 C 277.543 251.781 276.781 252.262 276.148 252.492 L 228.031 270.188 C 225.258 265.082 221.293 258.176 218.883 254.387 L 225.215 250.695 C 224.805 250.543 224.406 250.34 224.039 250.07 C 223 249.305 222.336 248.18 222.172 246.898 L 219.723 227.742 C 219.68 227.391 219.926 227.07 220.277 227.027 C 220.637 226.984 220.949 227.23 220.996 227.582 L 223.445 246.738 C 223.566 247.668 224.047 248.484 224.801 249.039 C 225.43 249.504 226.184 249.715 226.949 249.684 L 251.121 235.594 L 249.91 224.23 C 249.871 223.883 250.129 223.566 250.48 223.527 C 250.828 223.492 251.145 223.746 251.184 224.094 L 252.336 234.891 L 258.617 231.227 L 260.418 215.516 C 259.996 214.164 259.641 212.973 259.367 212.012 C 259.316 211.836 259.246 211.668 259.168 211.504 C 259.141 211.445 259.105 211.395 259.074 211.336 C 259.02 211.238 258.965 211.145 258.898 211.055 C 258.852 210.988 258.805 210.922 258.754 210.859 C 258.699 210.793 258.641 210.73 258.582 210.672 C 258.516 210.598 258.445 210.531 258.371 210.465 C 258.34 210.438 258.305 210.414 258.27 210.387 C 257.813 210.023 257.266 209.785 256.676 209.699 C 255.129 194.066 264.273 185.973 265.484 184.977 L 273.125 185.699 C 277.582 185.672 280.809 186.773 283.152 188.484 L 283.152 177.539 C 283.152 168.664 289.391 161.25 297.723 159.41 L 297.723 152.848 C 297.723 151.898 298.496 151.125 299.453 151.125 L 302.031 151.125 L 302.031 147.715 L 300.984 147.715 C 300.484 147.715 300.078 147.309 300.078 146.809 L 300.078 146.008 L 298.027 146.008 L 298.027 141.063 L 300.078 141.063 L 300.078 140.348 C 300.078 139.852 300.484 139.441 300.984 139.441 L 302.031 139.441 L 302.031 137.48 L 310.492 137.48 L 310.492 139.441 L 312.656 139.441 C 313.16 139.441 313.566 139.852 313.566 140.348 L 313.566 141.063 L 317.492 141.063 L 317.492 140.605 C 317.492 140.105 317.898 139.699 318.398 139.699 L 321.559 139.699 C 322.742 138.145 324.605 137.141 326.715 137.141 C 330.297 137.141 333.199 140.043 333.199 143.621 C 333.199 147.203 330.297 150.102 326.715 150.102 C 324.809 150.102 323.102 149.277 321.914 147.969 L 318.398 147.969 C 317.898 147.969 317.492 147.566 317.492 147.063 Z M 163.469 260.484 L 161.813 258.891 L 160.867 257.977 L 157.047 263.406 C 157.324 263.313 157.633 263.273 157.93 263.305 C 158.289 263.34 158.633 263.461 158.875 263.68 L 161.125 265.871 L 166.008 270.625 C 166.086 270.488 166.215 270.379 166.379 270.328 L 171.953 268.664 L 163.469 260.484 Z M 181.379 272.344 L 177.219 268.605 C 176.637 268.082 175.742 268.129 175.219 268.711 L 173.723 270.371 L 172.988 269.668 C 172.949 269.684 172.922 269.711 172.879 269.727 L 166.91 271.504 L 169.996 274.508 L 168.492 276.176 C 167.969 276.754 168.016 277.648 168.598 278.172 L 169.254 278.762 L 169.297 278.742 C 170.281 278.359 171.039 279.34 170.789 280.137 L 172.758 281.91 C 173.34 282.43 174.234 282.387 174.758 281.805 L 175.125 281.398 L 178.16 284.125 L 181.5 275.227 L 181.602 275.184 L 181.117 274.75 L 181.484 274.34 C 182.008 273.758 181.961 272.867 181.379 272.344 Z M 253.02 163.285 C 253.051 163.043 253.094 162.789 253.156 162.52 C 253.156 162.52 253.387 161.246 253.891 159.793 L 252.313 161.488 L 252.43 162.352 L 253.02 163.285 Z M 154.867 265.395 C 154.578 265.191 154.508 264.793 154.711 264.504 L 159.852 257.191 C 159.879 257.152 159.922 257.129 159.953 257.094 L 158.797 255.977 C 158.18 255.383 157.199 255.398 156.598 256.008 L 146.633 275.641 C 146.93 275.641 147.227 275.52 147.465 275.254 L 154.117 267.625 L 155.445 265.461 C 155.379 265.484 155.309 265.512 155.234 265.512 C 155.109 265.512 154.98 265.473 154.867 265.395 Z M 201.102 292.715 L 198.445 290.328 C 195.742 293.09 193.18 295.355 191.406 295.871 C 191.355 295.883 191.305 295.891 191.258 295.902 L 193.156 297.609 L 201.176 297.609 L 201.441 297.316 L 200.289 296.277 L 201.238 295.227 C 201.895 294.496 201.832 293.375 201.102 292.715 Z M 113.898 269.023 L 106.895 262.551 C 106.637 262.313 106.23 262.328 105.992 262.586 C 105.75 262.848 105.766 263.25 106.023 263.492 L 113.027 269.965 C 113.152 270.078 113.309 270.133 113.461 270.133 C 113.637 270.133 113.809 270.063 113.934 269.93 C 114.176 269.668 114.156 269.266 113.898 269.023 Z M 109.328 253.633 L 110.875 255.902 C 110.996 256.082 111.199 256.18 111.402 256.18 C 111.527 256.18 111.652 256.145 111.762 256.066 C 112.055 255.871 112.133 255.473 111.934 255.18 L 110.387 252.914 C 110.188 252.621 109.789 252.547 109.496 252.746 C 109.203 252.945 109.129 253.344 109.328 253.633 Z M 94.207 285.543 L 94.203 285.543 C 93.852 285.543 93.563 285.828 93.563 286.18 C 93.563 286.535 93.844 286.824 94.199 286.824 L 100.965 286.867 C 101.316 286.867 101.605 286.582 101.609 286.23 C 101.609 285.879 101.324 285.586 100.969 285.586 L 94.207 285.543 Z M 84.742 281.578 L 96.074 283.156 C 96.102 283.16 96.133 283.164 96.16 283.164 C 96.473 283.164 96.75 282.93 96.797 282.609 C 96.844 282.258 96.598 281.938 96.25 281.887 L 84.922 280.313 C 84.57 280.254 84.242 280.508 84.195 280.855 C 84.148 281.207 84.391 281.531 84.742 281.578 Z M 88.477 271.836 L 91.875 273.402 C 91.961 273.441 92.051 273.457 92.145 273.457 C 92.387 273.457 92.617 273.32 92.727 273.086 C 92.875 272.766 92.734 272.387 92.41 272.238 L 89.012 270.672 C 88.691 270.523 88.313 270.664 88.16 270.984 C 88.016 271.305 88.156 271.684 88.477 271.836 Z M 80.598 286.922 C 80.602 286.57 80.32 286.277 79.969 286.273 L 78.355 286.238 L 74.242 286.156 C 73.871 286.176 73.598 286.43 73.59 286.785 C 73.582 287.137 73.863 287.43 74.219 287.438 L 78.355 287.52 L 79.945 287.551 C 79.949 287.551 79.949 287.551 79.957 287.551 C 80.305 287.551 80.59 287.273 80.598 286.922 Z M 71.258 182.129 C 71.258 181.773 70.973 181.488 70.617 181.488 C 70.266 181.488 69.977 181.773 69.977 182.129 L 69.977 294.59 C 69.977 294.945 70.266 295.234 70.617 295.234 C 70.973 295.234 71.258 294.945 71.258 294.59 L 71.258 182.129 Z M 118.305 166.574 L 118.305 248.109 L 116.922 245.34 C 116.762 245.027 116.379 244.898 116.063 245.055 C 115.742 245.211 115.617 245.598 115.773 245.914 L 117.422 249.207 C 117.535 249.43 117.762 249.559 117.996 249.559 C 118.09 249.559 118.188 249.539 118.281 249.492 C 118.293 249.488 118.297 249.48 118.305 249.473 L 118.305 264.223 C 117.488 264.098 116.676 264.969 117.145 265.867 L 118.305 268.082 L 118.305 278.605 L 101.414 271.191 C 100.219 270.668 99.234 272.254 100.238 273.086 L 117.215 287.215 C 117.926 287.809 117.66 288.953 116.762 289.176 L 83.141 297.438 C 82.988 297.477 82.863 297.535 82.754 297.609 L 52.902 297.609 L 41.828 321.703 L 37.5 321.703 L 37.5 194.766 C 37.5 186.324 42.867 179.141 50.379 176.426 L 50.379 170.145 C 50.379 169.145 51.191 168.336 52.195 168.336 L 63.66 168.336 C 64.66 168.336 65.473 169.145 65.473 170.145 L 65.473 176.426 C 66.859 176.926 68.168 177.582 69.387 178.367 L 69.387 166.574 C 69.387 157.215 75.996 149.395 84.809 147.516 L 84.809 140.59 C 84.809 139.59 85.621 138.773 86.621 138.773 L 101.07 138.773 C 102.07 138.773 102.883 139.59 102.883 140.59 L 102.883 147.516 C 111.695 149.395 118.305 157.215 118.305 166.574 Z M 117.75 286.176 L 118.305 286.641 L 118.305 285.27 C 117.738 285.02 117.27 285.777 117.75 286.176 Z M 118.305 297.609 L 118.305 296.102 L 112.184 297.609 L 118.305 297.609 Z M 121.238 130.832 C 121.238 127.672 118.664 125.098 115.496 125.098 C 112.328 125.098 109.754 127.672 109.754 130.832 C 109.754 133.996 112.328 136.57 115.496 136.57 C 118.664 136.57 121.238 133.996 121.238 130.832 Z M 122.363 130.832 C 122.363 134.621 119.289 137.695 115.496 137.695 C 111.703 137.695 108.625 134.621 108.625 130.832 C 108.625 127.047 111.703 123.973 115.496 123.973 C 119.289 123.973 122.363 127.047 122.363 130.832 Z M 52.461 164.367 C 52.461 164.895 52.887 165.32 53.414 165.32 L 63.434 165.32 C 63.957 165.32 64.383 164.895 64.383 164.367 L 64.383 163.813 L 67.855 163.813 L 67.855 159.441 L 64.383 159.441 L 64.383 158.957 C 64.383 158.434 63.957 158.008 63.434 158.008 L 53.414 158.008 C 52.887 158.008 52.461 158.434 52.461 158.957 L 52.461 159.441 L 50.648 159.441 L 50.648 163.813 L 52.461 163.813 L 52.461 164.367 Z M 115.277 125.93 L 114.688 130.258 C 114.633 130.379 114.598 130.512 114.598 130.652 C 114.598 130.691 114.617 130.723 114.617 130.758 L 114.613 130.805 L 114.629 130.805 C 114.703 131.262 115.082 131.617 115.563 131.617 C 116.094 131.617 116.527 131.188 116.527 130.652 C 116.527 130.48 116.469 130.328 116.391 130.188 L 115.277 125.93 Z M 251.633 169.285 C 251.234 169.285 250.91 169.93 250.91 170.727 C 250.91 171.523 251.234 172.168 251.633 172.168 C 252.027 172.168 252.352 171.523 252.352 170.727 C 252.352 169.93 252.027 169.285 251.633 169.285 Z M 190.938 175.895 C 190.938 175.473 190.594 175.129 190.168 175.129 C 189.75 175.129 189.406 175.473 189.406 175.895 C 189.406 176.316 189.75 176.66 190.168 176.66 C 190.594 176.66 190.938 176.316 190.938 175.895 Z M 191.234 175.895 C 191.234 176.484 190.762 176.957 190.168 176.957 C 189.582 176.957 189.105 176.484 189.105 175.895 C 189.105 175.305 189.582 174.832 190.168 174.832 C 190.762 174.832 191.234 175.305 191.234 175.895 Z M 184.785 173.691 C 185.5 173.691 186.078 173.113 186.078 172.402 C 186.078 171.691 185.5 171.117 184.785 171.117 C 184.074 171.117 183.5 171.691 183.5 172.402 C 183.5 173.113 184.074 173.691 184.785 173.691 Z M 184.785 174.195 C 183.797 174.195 182.992 173.395 182.992 172.402 C 182.992 171.414 183.797 170.613 184.785 170.613 C 185.777 170.613 186.582 171.414 186.582 172.402 C 186.582 173.395 185.777 174.195 184.785 174.195 Z M 190.395 178.695 C 189.973 178.695 189.629 179.039 189.629 179.461 C 189.629 179.883 189.973 180.223 190.395 180.223 C 190.816 180.223 191.16 179.883 191.16 179.461 C 191.16 179.039 190.816 178.695 190.395 178.695 Z M 190.395 178.398 C 190.984 178.398 191.461 178.871 191.461 179.461 C 191.461 180.047 190.984 180.523 190.395 180.523 C 189.805 180.523 189.328 180.047 189.328 179.461 C 189.328 178.871 189.805 178.398 190.395 178.398 Z M 259.617 184.426 L 254.781 183.969 C 254.219 185.777 252.848 187.289 250.984 187.988 L 236.461 192.559 C 234.504 193.293 224.484 188.164 224.484 188.164 C 224.461 188.148 224.438 188.125 224.414 188.105 C 222.449 192.195 221.688 196.758 222.223 201.258 L 223.359 210.813 L 223.773 214.285 L 225.664 214.012 L 238.445 212.176 L 246.91 210.965 L 247.855 205.746 C 249.207 198.309 252.754 191.445 258.043 186.035 L 259.617 184.426 Z M 166.32 173.305 C 165.957 173.43 165.605 173.555 165.254 173.684 C 165.371 173.789 165.523 173.859 165.695 173.859 C 166.02 173.859 166.273 173.617 166.32 173.305 Z M 193.168 241.859 C 193.059 241.527 192.695 241.344 192.359 241.457 C 191 241.906 188.914 240.813 187.586 239.918 C 187.199 239.66 186.875 239.418 186.652 239.238 C 186.379 239.012 185.973 239.051 185.75 239.324 C 185.527 239.598 185.566 240.004 185.84 240.227 C 186.105 240.445 187.707 241.719 189.535 242.402 C 190.23 242.66 190.957 242.84 191.656 242.84 C 192.035 242.84 192.41 242.789 192.766 242.668 C 193.098 242.559 193.281 242.195 193.168 241.859 Z M 215.191 205.445 C 215.188 205.57 215.191 205.703 215.191 205.828 C 215.188 206.129 215.195 206.434 215.203 206.734 C 215.211 206.863 215.215 206.988 215.223 207.113 C 215.242 207.527 215.27 207.945 215.316 208.359 L 216.066 215.465 C 216.063 215.469 216.055 215.473 216.051 215.473 C 215.844 215.547 215.645 215.633 215.457 215.734 C 215.43 215.754 215.398 215.77 215.367 215.789 C 215.227 215.867 215.098 215.961 214.969 216.055 C 214.934 216.082 214.891 216.105 214.855 216.133 C 214.832 216.152 214.809 216.176 214.785 216.195 C 214.652 216.305 214.527 216.426 214.41 216.555 C 214.375 216.594 214.34 216.633 214.301 216.672 C 213.566 217.539 213.191 218.703 213.387 219.914 C 213.691 221.852 214.09 224.363 214.547 227.184 L 191.531 244.945 L 170.691 265.387 C 169.859 264.141 168.949 262.809 168.047 261.512 L 175.672 255.445 C 175.949 255.223 175.996 254.82 175.777 254.543 C 175.555 254.27 175.152 254.223 174.875 254.441 L 167.313 260.457 C 165.742 258.219 164.27 256.191 163.387 255.078 L 178.793 228.727 L 187.207 220.512 L 158.785 220.512 L 158.785 218.328 L 188.223 218.328 L 188.223 219.52 L 212.543 195.773 C 214.191 193.469 218.309 190.84 222.652 188.512 C 219 191.969 216.555 196.473 215.617 201.352 C 215.586 201.512 215.559 201.676 215.531 201.836 C 215.488 202.074 215.453 202.313 215.418 202.555 C 215.395 202.727 215.375 202.898 215.352 203.07 C 215.32 203.344 215.293 203.617 215.27 203.895 C 215.258 204.02 215.246 204.145 215.238 204.27 C 215.211 204.66 215.195 205.051 215.191 205.445 Z M 190.879 171.898 C 190.879 171.477 190.535 171.137 190.113 171.137 C 189.691 171.137 189.348 171.477 189.348 171.898 C 189.348 172.32 189.691 172.664 190.113 172.664 C 190.535 172.664 190.879 172.32 190.879 171.898 Z M 191.18 171.898 C 191.18 172.488 190.703 172.961 190.113 172.961 C 189.527 172.961 189.051 172.488 189.051 171.898 C 189.051 171.313 189.527 170.836 190.113 170.836 C 190.703 170.836 191.18 171.313 191.18 171.898 Z M 160.656 175.633 C 160.18 175.867 159.715 176.109 159.262 176.352 C 160.434 178.723 162.871 180.355 165.695 180.355 C 169.656 180.355 172.871 177.145 172.871 173.188 C 172.871 172.613 172.797 172.059 172.672 171.523 C 172.152 171.641 171.641 171.762 171.145 171.891 C 171.242 172.309 171.301 172.738 171.301 173.188 C 171.301 176.273 168.785 178.785 165.695 178.785 C 163.48 178.785 161.566 177.496 160.656 175.633 Z M 188.223 207.992 L 158.785 207.992 L 158.785 210.176 L 188.223 210.176 L 188.223 207.992 Z M 188.223 204.551 L 158.785 204.551 L 158.785 206.734 L 188.223 206.734 L 188.223 204.551 Z M 158.785 217.066 L 188.223 217.066 L 188.223 214.883 L 158.785 214.883 L 158.785 217.066 Z M 188.223 211.438 L 158.785 211.438 L 158.785 213.621 L 188.223 213.621 L 188.223 211.438 Z M 218.918 226.758 C 218.945 226.758 218.973 226.754 219.004 226.754 L 252.594 222.121 C 252.941 222.074 253.188 221.75 253.137 221.402 C 253.09 221.051 252.766 220.805 252.418 220.855 L 218.828 225.484 C 218.48 225.535 218.234 225.855 218.281 226.207 C 218.328 226.523 218.602 226.758 218.918 226.758 Z M 218.914 252.289 C 219.262 252.223 219.488 251.887 219.418 251.539 L 214.887 228.496 C 214.82 228.152 214.484 227.922 214.137 227.992 C 213.789 228.063 213.563 228.398 213.633 228.746 L 218.164 251.785 C 218.223 252.09 218.492 252.305 218.789 252.305 C 218.832 252.305 218.875 252.301 218.914 252.289 Z M 220.305 278.18 L 220.301 278.18 C 219.949 278.18 219.66 278.465 219.66 278.816 C 219.66 279.168 219.512 314.238 218.43 321.375 C 218.379 321.727 218.621 322.055 218.969 322.105 C 219.004 322.109 219.035 322.113 219.066 322.113 C 219.379 322.113 219.652 321.887 219.699 321.57 C 220.793 314.336 220.938 280.27 220.941 278.824 C 220.945 278.469 220.66 278.18 220.305 278.18 Z M 222.816 187.734 C 222.938 187.852 223.098 187.91 223.254 187.91 C 223.426 187.91 223.598 187.844 223.723 187.711 C 223.961 187.449 223.949 187.047 223.695 186.805 C 222.957 186.113 222.328 183.754 222.094 182.395 L 218.797 168.063 C 218.719 167.719 218.375 167.504 218.027 167.582 C 217.684 167.664 217.469 168.004 217.547 168.348 L 220.836 182.645 C 220.902 183.039 221.527 186.527 222.816 187.734 Z M 157.031 186.828 L 189.555 186.828 C 189.906 186.828 190.195 187.113 190.195 187.469 C 190.195 187.82 189.906 188.109 189.555 188.109 L 157.031 188.109 C 156.676 188.109 156.391 187.82 156.391 187.469 C 156.391 187.113 156.676 186.828 157.031 186.828" fill-opacity="1" fill-rule="nonzero"/>
  </g>
</svg>