<?xml version="1.0" encoding="utf-8"?>
<svg viewBox="0 0 500 500" xmlns="http://www.w3.org/2000/svg">
  <defs>
    <clipPath id="clippath0" transform="">
      <path d="M 0 1000 L 1855 1000 L 1855 0 L 0 0 Z" style="fill: none; clip-rule: nonzero;"/>
    </clipPath>
  </defs>
  <g transform="matrix(1, 0, 0, -1, -644.982531, 855.244739)">
    <g transform="">
      <path d="M 0 1000 L 1855 1000 L 1855 0 L 0 0 Z" style="fill: none;"/>
    </g>
    <g style="clip-path: url(#clippath0);" transform="matrix(0.678614, 0, 0, 0.678614, 534.986267, 266.436371)">
      <g transform="translate(248.9761 513.2349)">
        <path d="M 0 0 C 0 -146.796 119.002 -265.797 265.798 -265.797 C 412.594 -265.797 531.596 -146.796 531.596 0 C 531.596 146.796 412.594 265.798 265.798 265.798 C 119.002 265.798 0 146.796 0 0" style="fill: rgb(142, 28, 40); fill-opacity: 1;"/>
      </g>
    </g>
    <g style="clip-path: url(#clippath0);" transform="matrix(0.678614, 0, 0, 0.678614, 534.986267, 266.436371)">
      <g transform="translate(268.8613 660.0479)">
        <path d="M 0 0 C -2.631 0 -5.29 0.74 -7.654 2.289 C -14.116 6.524 -15.922 15.195 -11.687 21.658 C 45.466 108.881 141.766 160.954 245.913 160.954 C 315.891 160.954 381.835 138.065 436.616 94.765 C 442.677 89.973 443.707 81.176 438.916 75.114 C 434.124 69.051 425.324 68.023 419.267 72.814 C 369.475 112.172 309.531 132.975 245.913 132.975 C 151.231 132.975 63.681 85.629 11.715 6.323 C 9.029 2.226 4.559 0 0 0" style="fill: rgb(79, 76, 77); fill-opacity: 1;"/>
      </g>
    </g>
    <g style="clip-path: url(#clippath0);" transform="matrix(0.678614, 0, 0, 0.678614, 534.986267, 266.436371)">
      <g transform="translate(190.4653 490.3437)">
        <path d="M 0 0 C -7.465 0 -13.663 5.896 -13.968 13.423 C -17.73 106.228 6.604 188.285 56.402 250.723 C 103.277 309.495 170.991 349.525 252.222 366.484 C 259.778 368.066 267.195 363.214 268.775 355.649 C 270.355 348.086 265.503 340.675 257.94 339.097 C 98.298 305.766 7.1 184.442 13.988 14.555 C 14.301 6.835 8.296 0.324 0.576 0.011 C 0.384 0.003 0.191 0 0 0" style="fill: rgb(142, 28, 40); fill-opacity: 1;"/>
      </g>
    </g>
    <g style="clip-path: url(#clippath0);" transform="matrix(0.678614, 0, 0, 0.678614, 534.986267, 266.436371)">
      <g transform="translate(884.8564 468.7236)">
        <path d="M 0 0 L 0 94.11 L -40.809 91.962 C -42.733 106.377 -45.39 119.145 -48.326 129.719 L -10.174 144.98 L -43.239 228.917 L -104.284 147.524 C -104.284 147.524 -5.087 -122.089 -279.787 -284.875 L -269.613 -312.854 L -185.677 -279.788 L -200.937 -244.179 C -200.937 -244.179 -188.337 -235.668 -170.46 -220.882 L -139.894 -249.266 L -73.762 -183.134 L -103.203 -153.692 C -94.828 -143.287 -86.881 -132.249 -79.84 -120.723 L -43.239 -139.894 L -7.63 -50.871 L -46.215 -33.508 C -43.697 -22.146 -41.816 -10.947 -40.47 0 Z" style="fill: rgb(142, 28, 40); fill-opacity: 1;"/>
      </g>
    </g>
    <g style="clip-path: url(#clippath0);" transform="matrix(0.678614, 0, 0, 0.678614, 534.986267, 266.436371)">
      <g transform="translate(561.8291 168.5879)">
        <path d="M 0 0 C 0 0 -30.521 -15.261 -99.197 -22.892 C -99.197 -22.892 -58.501 -30.522 0 -25.436 Z" style="fill: rgb(142, 28, 40); fill-opacity: 1;"/>
      </g>
    </g>
    <g style="clip-path: url(#clippath0);" transform="matrix(0.678614, 0, 0, 0.678614, 534.986267, 266.436371)">
      <g transform="translate(508.415 232.1758)">
        <path d="M 0 0 C -162.785 10.174 -218.743 114.459 -218.743 114.459 L -283.602 110.644 C -277.409 99.854 -270.68 89.758 -263.542 80.309 L -292.504 53.414 L -223.83 -12.718 L -196.148 14.964 C -185.887 7.557 -175.531 0.927 -165.288 -5.005 L -183.133 -40.696 L -94.11 -76.306 L -78.264 -42.633 C -54.746 -49.778 -39.424 -52.142 -39.424 -52.142 L -39.424 -77.577 C 214.928 -47.055 270.886 184.405 270.886 184.405 C 251.81 134.807 162.786 -10.174 0 0" style="fill: rgb(79, 76, 77); fill-opacity: 1;"/>
      </g>
    </g>
    <g style="clip-path: url(#clippath0);" transform="matrix(0.678614, 0, 0, 0.678614, 534.986267, 266.436371)">
      <g transform="translate(746.998 642.5986)">
        <path d="M 0 0 L -12.209 -54.33 L -32.558 -54.33 L -32.558 -49.243 L -32.558 -21.264 L -98.688 -21.264 L -116.493 -95.026 L -73.254 -95.026 L -65.623 -79.765 L -45.275 -79.765 L -57.992 -143.353 L -78.341 -143.353 L -78.341 -123.005 L -124.124 -120.461 L -149.56 -219.658 L -113.95 -222.202 L -113.95 -242.55 L -225.865 -242.55 L -225.865 -222.202 C -197.887 -222.202 -190.256 -196.767 -190.256 -196.767 L -141.929 -21.264 C -166.932 -24.952 -193.512 -34.21 -207.374 -56.822 C -218.896 -75.593 -219.506 -100.444 -210.604 -120.461 C -200.43 -143.353 -202.974 -156.07 -220.778 -156.07 C -238.583 -156.07 -241.126 -148.44 -246.213 -123.005 C -251.91 -94.568 -239.6 -65.241 -224.237 -41.892 C -215.233 -28.182 -204.321 -15.795 -189.264 -8.724 C -172.833 -1.018 -155.003 2.899 -136.842 2.899 L -28.742 2.899 L -28.742 10.53 L -4.96 8.546" style="fill: rgb(255, 255, 255); fill-opacity: 1;"/>
      </g>
    </g>
    <g style="clip-path: url(#clippath0);" transform="matrix(0.678614, 0, 0, 0.678614, 534.986267, 266.436371)">
      <g transform="translate(273.1396 388.6025)">
        <path d="M 0 0 C 21.162 -10.606 55.958 -22.892 90.295 -13.989 C 142.93 -0.344 166.601 29.25 171.687 75.034 C 176.774 120.817 133.535 146.252 118.274 166.601 C 103.013 186.949 100.469 204.753 120.817 225.102 C 141.165 245.45 174.231 245.45 176.774 217.471 L 176.774 176.775 L 197.123 174.231 C 197.123 174.231 199.666 217.471 204.754 237.819 C 209.841 258.167 209.841 255.624 197.123 258.167 C 184.405 260.711 87.751 283.603 64.86 194.58 C 64.86 194.58 54.686 158.97 92.838 123.361 C 130.991 87.752 151.34 44.512 97.926 16.533 C 44.512 -11.446 31.794 31.794 31.794 47.055 C 31.794 61.4 1.374 68.37 -12.718 38.152" style="fill: rgb(255, 255, 255); fill-opacity: 1;"/>
      </g>
    </g>
    <g transform="">
      <path d="M 954.85 131.872 L 1678.882 131.872 L 1678.882 868.127 L 954.85 868.127 Z" style="fill: none;"/>
    </g>
  </g>
</svg>